<svg width="428" height="634" viewBox="0 0 428 634" fill="none" xmlns="http://www.w3.org/2000/svg">
<path d="M365.1 230.439C360.268 236.236 348.094 253.822 342.683 281.456C342.683 282.616 343.456 284.51 346.548 282.809C350.413 280.683 368.385 251.503 372.83 243.193C377.274 234.883 381.332 222.129 379.593 220.196C377.854 218.264 369.931 224.641 365.1 230.439Z" fill="#9B9DBC"/>
<path d="M65.8655 230.439C70.6968 236.236 82.8715 253.822 88.2825 281.456C88.2825 282.616 87.5095 284.51 84.4175 282.809C80.5524 280.683 62.5803 251.503 58.1356 243.193C53.6908 234.883 49.6326 222.129 51.3718 220.196C53.1111 218.264 61.0343 224.641 65.8655 230.439Z" fill="#9B9DBC"/>
<path d="M380.165 252.167C377.328 251.674 372.393 253.894 360.055 263.517C358.081 263.929 355.638 263.493 361.659 258.459C369.185 252.167 379.178 246.245 390.035 243.037C400.893 239.829 403.36 241.68 403.977 243.037C404.594 244.394 401.386 242.297 401.386 244.764C401.386 247.232 395.341 250.193 392.133 249.453C388.925 248.712 386.211 248.836 385.347 250.193C384.484 251.55 383.003 252.66 380.165 252.167Z" fill="#9B9DBC"/>
<path d="M50.7994 252.167C53.6371 251.674 58.572 253.894 70.9096 263.517C72.8836 263.929 75.3264 263.493 69.3057 258.459C61.7798 252.167 51.7864 246.245 40.9294 243.037C30.0723 239.829 27.6048 241.68 26.9879 243.037C26.3711 244.394 29.5788 242.297 29.5788 244.764C29.5788 247.232 35.6242 250.193 38.832 249.453C42.0397 248.712 44.754 248.836 45.6176 250.193C46.4813 251.55 47.9618 252.66 50.7994 252.167Z" fill="#9B9DBC"/>
<path d="M360.193 274.622C357.514 271.621 357.165 274.836 351.226 276.443L350.061 273.121C351.381 272.407 355.255 270.678 360.193 269.478C366.365 267.978 371.839 274.622 377.662 281.158C383.485 287.695 380.34 294.875 377.662 297.554C374.983 300.233 375.799 306.877 376.963 308.698C378.128 310.52 373.819 316.092 370.791 315.878C367.763 315.664 370.092 320.593 367.181 320.593C364.269 320.593 359.261 311.806 354.952 302.805C350.643 293.803 358.097 285.445 360.193 283.302C362.289 281.158 362.872 277.622 360.193 274.622Z" fill="#9B9DBC"/>
<path d="M70.771 274.622C73.4496 271.621 73.7988 274.836 79.7383 276.443L80.9028 273.121C79.583 272.407 75.7088 270.678 70.771 269.478C64.5987 267.978 59.1249 274.622 53.302 281.158C47.479 287.695 50.6234 294.875 53.302 297.554C55.9805 300.233 55.1653 306.877 54.0007 308.698C52.8361 310.52 57.1451 316.092 60.1731 315.878C63.201 315.664 60.8718 320.593 63.7833 320.593C66.6948 320.593 71.7025 311.806 76.0115 302.805C80.3205 293.803 72.8671 285.445 70.771 283.302C68.6748 281.158 68.0923 277.622 70.771 274.622Z" fill="#9B9DBC"/>
<path d="M383.7 275.558C370.689 278.159 360.557 267.592 353.053 271.391C351.246 273.196 347.997 276.013 349.463 272.838C351.296 268.87 353.886 267.545 363.45 266.374C373.014 265.203 373.894 268.839 380.44 269.046C386.985 269.252 382.276 263.925 386.005 263.612C389.733 263.3 387.532 254.786 388.817 254.628C390.101 254.471 385.848 251.68 386.681 247.834C387.514 243.988 392.31 250.025 396.097 253.737C399.884 257.449 396.711 272.957 383.7 275.558Z" fill="#9B9DBC"/>
<path d="M47.2641 275.558C60.2753 278.159 70.4073 267.592 77.9109 271.391C79.7184 273.196 82.9668 276.013 81.5009 272.838C79.6685 268.87 77.0779 267.545 67.5138 266.374C57.9496 265.203 57.0698 268.839 50.5245 269.046C43.9793 269.252 48.6884 263.925 44.9596 263.612C41.2307 263.3 43.4323 254.786 42.1475 254.628C40.8628 254.471 45.1165 251.68 44.2834 247.834C43.4503 243.988 38.6543 250.025 34.8674 253.737C31.0805 257.449 34.2528 272.957 47.2641 275.558Z" fill="#9B9DBC"/>
<path d="M322.025 241.659C338.278 241.783 343.861 257.664 343.985 267.838L341.255 279.624C342.165 279.707 344.481 279.823 346.466 279.624C348.948 279.376 351.925 266.473 351.925 258.036C351.925 249.6 343.985 241.659 340.263 238.558C336.541 235.456 323.762 233.347 316.566 237.317C309.37 241.287 307.012 243.768 305.151 248.483C303.29 253.198 303.166 256.299 307.012 259.401C310.858 262.503 315.201 259.277 315.821 258.036C316.442 256.796 314.208 257.54 311.107 252.701C308.005 247.863 305.772 241.535 322.025 241.659Z" fill="#9B9DBC"/>
<path d="M108.94 241.659C92.6868 241.783 87.1037 257.664 86.9797 267.838L89.709 279.624C88.7993 279.707 86.4834 279.823 84.4982 279.624C82.0166 279.376 79.0392 266.473 79.0392 258.036C79.0392 249.6 86.9797 241.659 90.7016 238.558C94.4235 235.456 107.203 233.347 114.399 237.317C121.595 241.287 123.952 243.768 125.813 248.483C127.674 253.198 127.798 256.299 123.952 259.401C120.106 262.503 115.764 259.277 115.143 258.036C114.523 256.796 116.756 257.54 119.858 252.701C122.96 247.863 125.193 241.535 108.94 241.659Z" fill="#9B9DBC"/>
<path d="M213.215 169.299H221.456L222.389 633.847H207.841L213.215 169.299Z" fill="#757648"/>
<path d="M234.155 42.4852C234.73 59.1413 230.746 69.5298 217.682 81.5642C204.618 69.5298 200.634 59.1413 201.208 42.4852C201.787 25.6955 210.471 17.0112 209.892 15.2744C209.313 13.5375 208.155 10.0638 211.629 7.74798C215.103 5.43217 217.103 3.11635 217.682 0.800537C218.261 3.11635 220.26 5.43217 223.734 7.74798C227.208 10.0638 226.05 13.5375 225.471 15.2744C224.892 17.0112 233.576 25.6955 234.155 42.4852Z" fill="url(#paint0_linear_39_142)"/>
<path d="M234.155 42.4852C234.73 59.1413 230.746 69.5298 217.682 81.5642C204.618 69.5298 200.634 59.1413 201.208 42.4852C201.787 25.6955 210.471 17.0112 209.892 15.2744C209.313 13.5375 208.155 10.0638 211.629 7.74798C215.103 5.43217 217.103 3.11635 217.682 0.800537C218.261 3.11635 220.26 5.43217 223.734 7.74798C227.208 10.0638 226.05 13.5375 225.471 15.2744C224.892 17.0112 233.576 25.6955 234.155 42.4852Z" fill="#8084A4"/>
<path d="M233.427 42.2246C233.975 57.815 230.247 69.3658 217.652 80.6554C205.057 69.3658 201.305 57.3795 201.852 41.7891C202.4 26.1987 211.132 17.0729 210.584 15.4601C210.036 13.8473 208.672 10.3225 211.957 8.17207C215.243 6.02167 217.144 4.24879 217.691 2.09839C218.239 4.24879 220.121 6.02167 223.406 8.17207C226.692 10.3225 225.332 13.8473 224.785 15.4601C224.237 17.0729 232.88 26.6342 233.427 42.2246Z" fill="url(#paint1_linear_39_142)"/>
<path d="M233.427 42.2246C233.975 57.815 230.247 69.3658 217.652 80.6554C205.057 69.3658 201.305 57.3795 201.852 41.7891C202.4 26.1987 211.132 17.0729 210.584 15.4601C210.036 13.8473 208.672 10.3225 211.957 8.17207C215.243 6.02167 217.144 4.24879 217.691 2.09839C218.239 4.24879 220.121 6.02167 223.406 8.17207C226.692 10.3225 225.332 13.8473 224.785 15.4601C224.237 17.0729 232.88 26.6342 233.427 42.2246Z" fill="url(#paint2_linear_39_142)"/>
<path d="M217.643 0.478027C216.032 20.1743 216.527 63.5304 217.643 78.3953C218.634 63.0349 218.758 31.4055 217.643 0.478027Z" fill="#9090B6"/>
<mask id="mask0_39_142" style="mask-type:alpha" maskUnits="userSpaceOnUse" x="201" y="2" width="33" height="79">
<path d="M233.427 42.2246C233.975 57.815 230.247 69.3658 217.652 80.6554C205.057 69.3658 201.305 57.3795 201.852 41.7891C202.4 26.1987 211.132 17.0729 210.584 15.4601C210.036 13.8473 208.672 10.3225 211.957 8.17207C215.243 6.02167 217.144 4.24879 217.691 2.09839C218.239 4.24879 220.121 6.02167 223.406 8.17207C226.692 10.3225 225.332 13.8473 224.785 15.4601C224.237 17.0729 232.88 26.6342 233.427 42.2246Z" fill="url(#paint3_radial_39_142)"/>
</mask>
<g mask="url(#mask0_39_142)">
<ellipse cx="217.944" cy="61.013" rx="22.5029" ry="29.6824" fill="url(#paint4_radial_39_142)" fill-opacity="0.55"/>
</g>
<path d="M251.581 93.4645C247.225 85.7211 244.644 89.4315 237.384 91.0447C231.899 93.357 224.22 95.9166 237.384 87.6569C253.839 77.3323 257.227 78.9455 271.101 79.4295C284.974 79.9134 286.265 98.1428 289.169 107.016C292.072 115.888 301.268 113.468 305.623 119.115C309.979 124.761 304.01 124.761 303.526 131.859C303.139 137.538 294.761 141.001 290.621 142.022C292.18 137.882 291.943 130.569 278.521 134.44C261.744 139.28 261.421 132.343 258.356 128.794C255.291 125.245 260.615 118.792 255.936 116.372C251.258 113.952 251.581 110.887 251.581 105.725C251.581 100.563 255.936 101.208 251.581 93.4645Z" fill="#9B9DBC"/>
<path d="M233.947 98.4287C231.494 101.891 229.618 101.603 219.663 101.17C219.23 100.929 218.884 99.4674 220.962 95.5432C223.559 90.6378 222.116 92.0806 230.917 87.8966C237.255 84.8835 240.639 86.7106 241.847 88.3683C242.516 88.2618 242.863 88.4161 242.17 88.9066C242.089 88.7338 241.981 88.5521 241.847 88.3683C241.402 88.4393 240.813 88.6262 240.295 88.9066C237.85 90.2287 236.399 94.9661 233.947 98.4287Z" fill="#686B9A"/>
<path d="M261.959 69.1265C258.659 66.4553 253.474 67.7124 246.325 71.7976L246.953 70.0694C248.341 68.9956 252.06 66.471 255.831 64.9626C260.545 63.077 261.959 65.8269 264.944 68.4194C267.93 71.012 268.873 70.9335 270.523 69.1265C272.172 67.3194 270.523 67.6338 270.523 65.8269C270.523 64.0199 279.322 65.5912 274.058 70.0694C268.794 74.5475 265.259 71.7976 261.959 69.1265Z" fill="#686B9A"/>
<path d="M241.407 28.1102C240.386 25.9758 239.923 22.4034 240.851 19.3875C241.036 20.2029 241.654 22.0855 242.642 23.0923C243.63 24.0991 245.54 26.1687 246.372 27.0776L252.5 48.3675C249.703 56.0584 243.987 72.1114 243.495 74.7962C243.003 77.4811 234.506 79.1561 230.318 79.658C231.896 78.8229 235.58 76.8278 237.696 75.5286C240.34 73.9047 245.954 59.7071 246.372 56.088C246.789 52.469 245.351 45.927 243.495 42.7255C241.639 39.5241 243.217 35.3483 243.495 32.9356C243.774 30.523 242.428 30.2446 241.407 28.1102Z" fill="#686B9A"/>
<path d="M246.056 64.009C243.619 72.5395 235.089 79.2417 222.902 81.5266C223.664 81.8821 226.284 82.5625 230.671 82.4407C236.155 82.2883 239.963 80.0034 242.857 77.5662C245.752 75.1289 251.997 64.009 257.024 57.9159C262.051 51.8227 261.594 49.3855 259.918 43.4447C258.243 37.5039 252.606 35.3713 250.931 34.1527C249.255 32.9341 251.388 28.5165 246.056 25.013C240.725 21.5094 240.877 17.3967 240.725 20.1386C240.572 22.8805 242.705 25.013 246.056 35.3713C249.407 45.7296 248.494 55.4786 246.056 64.009Z" fill="#9B9DBC"/>
<path d="M184.622 93.4645C188.978 85.7211 191.559 89.4315 198.819 91.0447C204.304 93.357 211.983 95.9166 198.819 87.6569C182.364 77.3323 178.976 78.9455 165.103 79.4295C151.229 79.9134 149.938 98.1428 147.034 107.016C144.131 115.888 134.935 113.468 130.58 119.115C126.224 124.761 132.193 124.761 132.677 131.859C133.064 137.538 141.442 141.001 145.583 142.022C144.023 137.882 144.26 130.569 157.682 134.44C174.459 139.28 174.782 132.343 177.847 128.794C180.912 125.245 175.588 118.792 180.267 116.372C184.945 113.952 184.622 110.887 184.622 105.725C184.622 100.563 180.267 101.208 184.622 93.4645Z" fill="#9B9DBC"/>
<path d="M202.257 98.4287C204.709 101.891 206.585 101.603 216.54 101.17C216.973 100.929 217.319 99.4674 215.241 95.5432C212.644 90.6378 214.087 92.0806 205.286 87.8966C198.948 84.8835 195.564 86.7106 194.356 88.3683C193.687 88.2618 193.34 88.4161 194.033 88.9066C194.114 88.7338 194.222 88.5521 194.356 88.3683C194.801 88.4393 195.39 88.6262 195.908 88.9066C198.354 90.2287 199.804 94.9661 202.257 98.4287Z" fill="#686B9A"/>
<path d="M174.245 69.1265C177.544 66.4553 182.73 67.7124 189.879 71.7976L189.25 70.0694C187.863 68.9956 184.144 66.471 180.373 64.9626C175.659 63.077 174.245 65.8269 171.259 68.4194C168.274 71.012 167.331 70.9335 165.681 69.1265C164.031 67.3194 165.681 67.6338 165.681 65.8269C165.681 64.0199 156.882 65.5912 162.146 70.0694C167.41 74.5475 170.945 71.7976 174.245 69.1265Z" fill="#686B9A"/>
<path d="M194.796 28.1102C195.817 25.9758 196.281 22.4034 195.353 19.3875C195.167 20.2029 194.549 22.0855 193.561 23.0923C192.574 24.0991 190.663 26.1687 189.831 27.0776L183.703 48.3675C186.5 56.0584 192.216 72.1114 192.708 74.7962C193.2 77.4811 201.697 79.1561 205.885 79.658C204.307 78.8229 200.623 76.8278 198.508 75.5286C195.863 73.9047 190.249 59.7071 189.831 56.088C189.414 52.469 190.852 45.927 192.708 42.7255C194.564 39.5241 192.986 35.3483 192.708 32.9356C192.43 30.523 193.775 30.2446 194.796 28.1102Z" fill="#686B9A"/>
<path d="M190.147 64.009C192.584 72.5395 201.114 79.2417 213.301 81.5266C212.539 81.8821 209.919 82.5625 205.532 82.4407C200.048 82.2883 196.24 80.0034 193.346 77.5662C190.452 75.1289 184.206 64.009 179.179 57.9159C174.152 51.8227 174.609 49.3855 176.285 43.4447C177.961 37.5039 183.597 35.3713 185.272 34.1527C186.948 32.9341 184.815 28.5165 190.147 25.013C195.478 21.5094 195.326 17.3967 195.478 20.1386C195.631 22.8805 193.498 25.013 190.147 35.3713C186.796 45.7296 187.71 55.4786 190.147 64.009Z" fill="#9B9DBC"/>
<path d="M217.248 71.9246C217.208 71.5463 217.206 71.1587 217.247 70.7627C217.288 71.1587 217.287 71.5463 217.248 71.9246C217.768 76.8549 224.808 80.2109 229.257 80.033C233.089 79.8798 232.258 81.6297 231.364 82.5238C227.979 83.9289 221.363 88.3866 221.976 94.9775C222.742 103.216 230.023 100.917 236.154 106.282C242.285 111.646 254.547 139.428 240.561 160.887C226.574 182.345 230.096 169.212 226.737 172.384C223.378 175.557 217.905 175.122 217.283 180.035C216.661 175.122 211.188 175.557 207.829 172.385C204.47 169.213 207.992 182.346 194.005 160.887C180.019 139.429 192.281 111.647 198.412 106.283C204.543 100.918 211.824 103.217 212.59 94.9784C213.203 88.3875 206.587 83.9297 203.202 82.5247C202.308 81.6306 201.478 79.8806 205.309 80.0339C209.758 80.2118 216.736 76.855 217.248 71.9246Z" fill="#9B9DBC"/>
<path d="M233.333 203.526C203.419 231.137 220.69 222.81 220.69 241.144V254.24C221.563 248.565 225.2 238.825 228.081 229.396C231.682 217.61 235.667 212.474 248.505 200.025C259.591 189.274 265.215 188.701 272.228 177.551C280.34 164.651 270.771 145.803 267.17 144.057C267.06 141.22 267.17 156.065 264.455 166.763C260.347 182.95 242.6 194.973 233.333 203.526Z" fill="#757648"/>
<path d="M202.537 203.526C232.45 231.137 215.18 222.81 215.18 241.144V254.24C214.307 248.565 210.67 238.825 207.789 229.396C204.187 217.61 200.203 212.474 187.365 200.025C176.278 189.274 170.654 188.701 163.642 177.551C155.529 164.651 165.099 145.803 168.7 144.057C168.809 141.22 168.7 156.065 171.415 166.763C175.522 182.95 193.269 194.973 202.537 203.526Z" fill="#757648"/>
<path d="M218.618 393.469C229.235 346.418 270.736 223.507 351.809 108.269C336.607 138.429 299.111 213.373 270.736 271.861C242.361 330.349 224.168 393.711 218.618 418.081V393.469Z" fill="#757648"/>
<path d="M215.091 395.732C204.475 348.682 162.973 225.77 81.9009 110.532C97.102 140.693 134.598 215.636 162.973 274.124C191.349 332.612 209.542 395.974 215.091 420.344V395.732Z" fill="#757648"/>
<path d="M343.496 167.388C340.564 163.618 321.293 178.28 301.604 203.415L291.969 217.658C293.924 217.518 301.521 215.061 316.266 206.347C334.699 195.455 346.428 171.158 343.496 167.388Z" fill="#9B9DBC"/>
<path d="M90.2136 169.651C93.146 165.881 112.416 180.543 132.105 205.678L141.74 219.921C139.785 219.781 132.189 217.324 117.443 208.61C99.0108 197.718 87.2812 173.421 90.2136 169.651Z" fill="#9B9DBC"/>
<path d="M317.464 209.873C309.962 212.999 295.602 219.318 286.284 230.962C283.572 234.258 279.862 237.907 286.714 226.135C295.28 211.419 319.984 206.339 322.343 206.165C324.701 205.991 324.967 206.747 317.464 209.873Z" fill="#757648"/>
<path d="M116.245 212.136C123.748 215.262 138.108 221.581 147.425 233.225C150.137 236.521 153.848 240.17 146.995 228.398C138.429 213.682 113.726 208.603 111.367 208.428C109.008 208.254 108.743 209.011 116.245 212.136Z" fill="#757648"/>
<path d="M243.407 573.076C237.306 592.488 238.415 602.471 223.995 613.009C216.042 616.775 214.686 604.031 220.291 604.031C227.297 604.031 229.509 592.601 239.095 562.366L239.103 562.342C248.701 532.07 284.79 418.252 314.177 377.776C343.572 337.288 381.76 318.811 408.067 316.089C328.201 351.031 249.508 553.664 243.407 573.076Z" fill="#757648"/>
<path d="M187.156 573.076C193.257 592.488 192.148 602.471 206.568 613.009C212.099 617.051 215.877 604.031 210.272 604.031C203.266 604.031 201.054 592.601 191.468 562.366L191.46 562.342C181.861 532.07 145.773 418.252 116.386 377.776C86.9906 337.288 48.8035 318.811 22.4963 316.089C102.362 351.031 181.055 553.664 187.156 573.076Z" fill="#757648"/>
<path d="M289.098 385.489C249.195 417.078 245.778 501.435 212.618 589.99V565.051C221.208 533.184 236.167 477.202 244.147 447.275C254.123 409.866 265.821 340.599 353.94 363.044C442.059 385.489 428.758 460.307 423.77 443.681C418.782 427.055 412.963 409.597 383.036 390.476C353.109 371.356 329.001 353.899 289.098 385.489Z" fill="#757648"/>
<path d="M138.611 385.489C178.514 417.078 181.931 501.435 215.091 589.99V565.051C206.501 533.184 191.542 477.202 183.562 447.275C173.586 409.866 161.888 340.599 73.7691 363.044C-14.3496 385.489 -1.04861 460.307 3.93922 443.681C8.92706 427.055 14.7462 409.597 44.6733 390.476C74.6004 371.356 98.7083 353.899 138.611 385.489Z" fill="#757648"/>
<path d="M275.587 355.656C260.009 379.023 248.156 380.378 221.403 472.153C218.581 480.845 214.63 488.476 221.403 449.463C229.869 400.697 263.396 359.043 285.07 334.66C302.409 315.153 327.288 292.893 337.561 284.2L341.625 286.571C324.805 301.811 288.05 336.963 275.587 355.656Z" fill="#757648"/>
<path d="M155.377 355.656C170.955 379.023 182.808 380.378 209.562 472.153C212.384 480.845 216.335 488.476 209.562 449.463C201.095 400.697 167.568 359.043 145.895 334.66C128.556 315.153 103.676 292.893 93.4034 284.2L89.3396 286.571C106.159 301.811 142.915 336.963 155.377 355.656Z" fill="#757648"/>
<path d="M349.446 283.182C345.263 286.435 342.939 288.294 339.221 286.784C338.408 287.016 335.613 288.165 336.201 284.344C336.898 279.812 338.059 277.721 340.848 276.327C343.636 274.933 343.055 263.895 345.495 267.613C347.935 271.331 341.777 280.626 344.798 277.721C347.819 274.817 359.67 275.63 355.836 276.327C352.002 277.024 353.628 279.929 349.446 283.182Z" fill="#757648"/>
<path d="M81.5188 283.182C85.7015 286.435 88.0251 288.294 91.7432 286.784C92.5565 287.016 95.3516 288.165 94.7635 284.344C94.0661 279.812 92.9049 277.721 90.1165 276.327C87.328 274.933 87.9089 263.895 85.4691 267.613C83.0292 271.331 89.187 280.626 86.1662 277.721C83.1454 274.817 71.2945 275.63 75.1286 276.327C78.9627 277.024 77.3361 279.929 81.5188 283.182Z" fill="#757648"/>
<path d="M349.293 240.132C353.118 241.612 353.488 244.203 352.625 254.073C352.625 254.402 352.896 254.468 353.982 252.099C355.339 249.138 354.475 245.067 353.982 241.489C353.488 237.911 351.021 238.898 348.553 237.664C346.086 236.43 345.962 234.086 346.826 231.989C347.69 229.891 351.021 230.878 349.91 229.274C348.8 227.671 350.034 227.424 351.021 226.19C352.008 224.956 344.482 223.723 343.001 230.878C341.521 238.034 345.469 238.651 349.293 240.132Z" fill="#9B9DBC"/>
<path d="M81.6718 240.132C77.8472 241.612 77.4769 244.203 78.3405 254.073C78.3405 254.402 78.0691 254.468 76.9834 252.099C75.6263 249.138 76.4899 245.067 76.9834 241.489C77.4769 237.911 79.9444 238.898 82.4119 237.664C84.8794 236.43 85.0028 234.086 84.1392 231.989C83.2755 229.891 79.9444 230.878 81.0548 229.274C82.1652 227.671 80.9314 227.424 79.9444 226.19C78.9574 224.956 86.4833 223.723 87.9638 230.878C89.4443 238.034 85.4963 238.651 81.6718 240.132Z" fill="#9B9DBC"/>
<defs>
<linearGradient id="paint0_linear_39_142" x1="217.682" y1="0.800537" x2="217.682" y2="81.854" gradientUnits="userSpaceOnUse">
<stop stop-color="#CAB0B3"/>
<stop offset="0.259615" stop-color="#8E93BC"/>
<stop offset="1" stop-color="#E5D8C1"/>
</linearGradient>
<linearGradient id="paint1_linear_39_142" x1="217.682" y1="1.72071" x2="217.682" y2="76.9846" gradientUnits="userSpaceOnUse">
<stop stop-color="#CAB0B3"/>
<stop offset="0.259615" stop-color="#8E93BC"/>
<stop offset="1" stop-color="#E5D8C1"/>
</linearGradient>
<linearGradient id="paint2_linear_39_142" x1="217.682" y1="1.72071" x2="217.682" y2="76.9846" gradientUnits="userSpaceOnUse">
<stop stop-color="#CAB0B3"/>
<stop offset="0.259615" stop-color="#8E93BC"/>
<stop offset="1" stop-color="#E5D8C1"/>
</linearGradient>
<radialGradient id="paint3_radial_39_142" cx="0" cy="0" r="1" gradientUnits="userSpaceOnUse" gradientTransform="translate(238.376 39.2565) rotate(-129.346) scale(16.532 6.86716)">
<stop offset="0.322115" stop-color="#5D5D88"/>
<stop offset="1" stop-color="#CAB0B3"/>
</radialGradient>
<radialGradient id="paint4_radial_39_142" cx="0" cy="0" r="1" gradientUnits="userSpaceOnUse" gradientTransform="translate(217.944 63.9343) rotate(90) scale(37.0602 37.0602)">
<stop offset="0.379808" stop-color="#0B0F5C"/>
<stop offset="1" stop-color="#A1A2BD"/>
</radialGradient>
</defs>
</svg>
