<svg width="48" height="48" viewBox="0 0 48 48" fill="none" xmlns="http://www.w3.org/2000/svg">
<g clip-path="url(#clip0_78_69)">
<rect width="48" height="48" rx="4.94154" fill="#F9F0DD"/>
<path d="M12.5203 1.31453C12.5204 5.6112 14.8741 9.35741 18.3621 11.3361C18.3664 11.3342 18.3706 11.3322 18.3749 11.3303V11.3431C18.3707 11.3407 18.3663 11.3385 18.3621 11.3361C13.5209 13.5056 10.1485 18.3665 10.1485 24.015L10.1497 24.1945C10.2203 29.766 13.5722 34.5467 18.3616 36.6933C18.3687 36.6893 18.3758 36.6855 18.3829 36.6815V36.7025C18.3758 36.6994 18.3687 36.6965 18.3616 36.6933C14.8737 38.6721 12.5204 42.4186 12.5203 46.7152V48H4.94154C2.2124 48 0 45.7876 0 43.0585V4.94154C0 2.2124 2.2124 0 4.94154 0H12.5203V1.31453ZM24.035 38.5254C28.558 38.5254 32.2247 42.1921 32.2247 46.7152V48H15.8453V46.7152C15.8453 42.1922 19.512 38.5255 24.035 38.5254ZM48 43.0585C48 45.7876 45.7876 48 43.0585 48H35.5499V46.7152C35.5498 42.4186 33.1962 38.6723 29.7083 36.6936C29.6979 36.6983 29.6872 36.7027 29.6767 36.7073V36.676C29.6872 36.6819 29.6979 36.6876 29.7083 36.6936C34.4981 34.547 37.8501 29.7662 37.9208 24.1945L37.922 24.015C37.9219 18.3664 34.5494 13.5055 29.7081 11.3361C29.7074 11.3365 29.7067 11.3369 29.7059 11.3373V11.3351C29.7067 11.3355 29.7074 11.3358 29.7081 11.3361C33.1961 9.35739 35.5498 5.61114 35.5499 1.31453V0H43.0585C45.7876 0 48 2.2124 48 4.94154V43.0585ZM24.0352 13.4534C29.8682 13.4534 34.5968 18.182 34.5968 24.015C34.5968 29.8479 29.8682 34.5765 24.0352 34.5765C18.2023 34.5765 13.4737 29.8479 13.4737 24.015C13.4737 18.182 18.2023 13.4534 24.0352 13.4534ZM24.0352 18.1218C20.7806 18.1218 18.1421 20.7603 18.1421 24.015C18.1421 27.2696 20.7806 29.9079 24.0352 29.9079C27.2898 29.9078 29.9281 27.2696 29.9282 24.015C29.9282 20.7603 27.2898 18.1218 24.0352 18.1218ZM32.2247 1.31453C32.2247 5.83753 28.558 9.50424 24.035 9.50426C19.512 9.50421 15.8453 5.83752 15.8453 1.31453V0H32.2247V1.31453Z" fill="#51422B"/>
</g>
<defs>
<clipPath id="clip0_78_69">
<rect width="48" height="48" fill="white"/>
</clipPath>
</defs>
</svg>
